<mxfile host="app.diagrams.net" modified="2023-07-24T01:20:00.877Z" agent="Mozilla/5.0 (Windows NT 10.0; WOW64) AppleWebKit/537.36 (KHTML, like Gecko) Chrome/110.0.0.0 Safari/537.36" etag="ncS1k5w2fM5CvbjfOL4B" version="21.6.5" type="device">
  <diagram name="Trang-1" id="_GX6e_ZkJpiou_R_EqRh">
    <mxGraphModel dx="1635" dy="825" grid="1" gridSize="10" guides="1" tooltips="1" connect="1" arrows="1" fold="1" page="1" pageScale="1" pageWidth="1169" pageHeight="1654" math="0" shadow="0">
      <root>
        <mxCell id="0" />
        <mxCell id="1" parent="0" />
        <mxCell id="W7etXZ73mNdaVW4LQcqH-1" value="Bắt đầu" style="rounded=1;whiteSpace=wrap;html=1;" parent="1" vertex="1">
          <mxGeometry x="305" y="350" width="90" height="40" as="geometry" />
        </mxCell>
        <mxCell id="W7etXZ73mNdaVW4LQcqH-3" value="Thời gian thực = set hoặc&lt;br&gt;j == 0" style="rhombus;whiteSpace=wrap;html=1;" parent="1" vertex="1">
          <mxGeometry x="240" y="640" width="220" height="80" as="geometry" />
        </mxCell>
        <mxCell id="W7etXZ73mNdaVW4LQcqH-5" value="Đèn xanh tuyến 1 sáng&lt;br&gt;Đèn đỏ tuyến 2 sáng" style="rounded=1;whiteSpace=wrap;html=1;" parent="1" vertex="1">
          <mxGeometry x="275" y="770" width="150" height="60" as="geometry" />
        </mxCell>
        <mxCell id="W7etXZ73mNdaVW4LQcqH-7" value="" style="endArrow=classic;html=1;rounded=0;exitX=0;exitY=0.5;exitDx=0;exitDy=0;" parent="1" source="W7etXZ73mNdaVW4LQcqH-3" edge="1">
          <mxGeometry width="50" height="50" relative="1" as="geometry">
            <mxPoint x="350" y="760" as="sourcePoint" />
            <mxPoint x="350" y="540" as="targetPoint" />
            <Array as="points">
              <mxPoint x="160" y="680" />
              <mxPoint x="160" y="540" />
            </Array>
          </mxGeometry>
        </mxCell>
        <mxCell id="W7etXZ73mNdaVW4LQcqH-9" value="Đúng" style="endArrow=classic;html=1;rounded=0;exitX=0.5;exitY=1;exitDx=0;exitDy=0;entryX=0.5;entryY=0;entryDx=0;entryDy=0;" parent="1" source="W7etXZ73mNdaVW4LQcqH-3" target="W7etXZ73mNdaVW4LQcqH-5" edge="1">
          <mxGeometry width="50" height="50" relative="1" as="geometry">
            <mxPoint x="340" y="760" as="sourcePoint" />
            <mxPoint x="390" y="710" as="targetPoint" />
          </mxGeometry>
        </mxCell>
        <mxCell id="W7etXZ73mNdaVW4LQcqH-12" value="Đèn vàng tuyến 1 sáng&lt;br&gt;Đèn đỏ tuyến 2 sáng" style="rounded=1;whiteSpace=wrap;html=1;" parent="1" vertex="1">
          <mxGeometry x="275" y="860" width="150" height="60" as="geometry" />
        </mxCell>
        <mxCell id="W7etXZ73mNdaVW4LQcqH-13" value="Đèn đỏ tuyến 1 sáng&lt;br&gt;Đèn xanh tuyến 2 sáng" style="rounded=1;whiteSpace=wrap;html=1;" parent="1" vertex="1">
          <mxGeometry x="275" y="950" width="150" height="60" as="geometry" />
        </mxCell>
        <mxCell id="W7etXZ73mNdaVW4LQcqH-14" value="Đèn đỏ tuyến 1 sáng&lt;br&gt;Đèn vàng tuyến 2 sáng" style="rounded=1;whiteSpace=wrap;html=1;" parent="1" vertex="1">
          <mxGeometry x="275" y="1050" width="150" height="60" as="geometry" />
        </mxCell>
        <mxCell id="W7etXZ73mNdaVW4LQcqH-15" value="" style="endArrow=classic;html=1;rounded=0;exitX=0.5;exitY=1;exitDx=0;exitDy=0;entryX=0.5;entryY=0;entryDx=0;entryDy=0;" parent="1" source="W7etXZ73mNdaVW4LQcqH-5" target="W7etXZ73mNdaVW4LQcqH-12" edge="1">
          <mxGeometry width="50" height="50" relative="1" as="geometry">
            <mxPoint x="325" y="820" as="sourcePoint" />
            <mxPoint x="375" y="770" as="targetPoint" />
          </mxGeometry>
        </mxCell>
        <mxCell id="W7etXZ73mNdaVW4LQcqH-16" value="" style="endArrow=classic;html=1;rounded=0;exitX=0.5;exitY=1;exitDx=0;exitDy=0;entryX=0.5;entryY=0;entryDx=0;entryDy=0;" parent="1" source="W7etXZ73mNdaVW4LQcqH-12" target="W7etXZ73mNdaVW4LQcqH-13" edge="1">
          <mxGeometry width="50" height="50" relative="1" as="geometry">
            <mxPoint x="325" y="920" as="sourcePoint" />
            <mxPoint x="375" y="870" as="targetPoint" />
          </mxGeometry>
        </mxCell>
        <mxCell id="W7etXZ73mNdaVW4LQcqH-17" value="" style="endArrow=classic;html=1;rounded=0;exitX=0.5;exitY=1;exitDx=0;exitDy=0;entryX=0.5;entryY=0;entryDx=0;entryDy=0;" parent="1" source="W7etXZ73mNdaVW4LQcqH-13" target="W7etXZ73mNdaVW4LQcqH-14" edge="1">
          <mxGeometry width="50" height="50" relative="1" as="geometry">
            <mxPoint x="325" y="990" as="sourcePoint" />
            <mxPoint x="375" y="940" as="targetPoint" />
          </mxGeometry>
        </mxCell>
        <mxCell id="W7etXZ73mNdaVW4LQcqH-18" value="Wifi = true" style="rhombus;whiteSpace=wrap;html=1;" parent="1" vertex="1">
          <mxGeometry x="280" y="420" width="140" height="80" as="geometry" />
        </mxCell>
        <mxCell id="W7etXZ73mNdaVW4LQcqH-19" value="Set time cho các đèn&lt;br&gt;Bằng app hoặc button&amp;nbsp;" style="rounded=1;whiteSpace=wrap;html=1;" parent="1" vertex="1">
          <mxGeometry x="260" y="550" width="180" height="60" as="geometry" />
        </mxCell>
        <mxCell id="W7etXZ73mNdaVW4LQcqH-20" value="Đúng" style="endArrow=classic;html=1;rounded=0;exitX=0.5;exitY=1;exitDx=0;exitDy=0;entryX=0.5;entryY=0;entryDx=0;entryDy=0;" parent="1" source="W7etXZ73mNdaVW4LQcqH-18" target="W7etXZ73mNdaVW4LQcqH-19" edge="1">
          <mxGeometry x="-0.6" width="50" height="50" relative="1" as="geometry">
            <mxPoint x="400" y="520" as="sourcePoint" />
            <mxPoint x="450" y="470" as="targetPoint" />
            <mxPoint as="offset" />
          </mxGeometry>
        </mxCell>
        <mxCell id="W7etXZ73mNdaVW4LQcqH-21" value="" style="endArrow=classic;html=1;rounded=0;exitX=0.5;exitY=1;exitDx=0;exitDy=0;entryX=0.5;entryY=0;entryDx=0;entryDy=0;" parent="1" source="W7etXZ73mNdaVW4LQcqH-19" target="W7etXZ73mNdaVW4LQcqH-3" edge="1">
          <mxGeometry width="50" height="50" relative="1" as="geometry">
            <mxPoint x="400" y="520" as="sourcePoint" />
            <mxPoint x="450" y="470" as="targetPoint" />
          </mxGeometry>
        </mxCell>
        <mxCell id="W7etXZ73mNdaVW4LQcqH-22" value="" style="endArrow=classic;html=1;rounded=0;exitX=0.5;exitY=1;exitDx=0;exitDy=0;entryX=0.5;entryY=0;entryDx=0;entryDy=0;" parent="1" source="W7etXZ73mNdaVW4LQcqH-1" target="W7etXZ73mNdaVW4LQcqH-18" edge="1">
          <mxGeometry width="50" height="50" relative="1" as="geometry">
            <mxPoint x="400" y="610" as="sourcePoint" />
            <mxPoint x="450" y="560" as="targetPoint" />
          </mxGeometry>
        </mxCell>
        <mxCell id="W7etXZ73mNdaVW4LQcqH-23" value="" style="endArrow=classic;html=1;rounded=0;exitX=1;exitY=0.5;exitDx=0;exitDy=0;" parent="1" source="W7etXZ73mNdaVW4LQcqH-14" edge="1">
          <mxGeometry width="50" height="50" relative="1" as="geometry">
            <mxPoint x="400" y="1000" as="sourcePoint" />
            <mxPoint x="440" y="580" as="targetPoint" />
            <Array as="points">
              <mxPoint x="550" y="1080" />
              <mxPoint x="550" y="580" />
            </Array>
          </mxGeometry>
        </mxCell>
        <mxCell id="r4zGwkzem3nTi81o2-w--1" value="Mode == true&amp;nbsp;" style="rhombus;whiteSpace=wrap;html=1;" vertex="1" parent="1">
          <mxGeometry x="600" y="480" width="230" height="110" as="geometry" />
        </mxCell>
        <mxCell id="r4zGwkzem3nTi81o2-w--2" value="" style="endArrow=classic;html=1;rounded=0;entryX=-0.019;entryY=0.516;entryDx=0;entryDy=0;entryPerimeter=0;" edge="1" parent="1" target="r4zGwkzem3nTi81o2-w--1">
          <mxGeometry width="50" height="50" relative="1" as="geometry">
            <mxPoint x="350" y="540" as="sourcePoint" />
            <mxPoint x="580" y="540" as="targetPoint" />
          </mxGeometry>
        </mxCell>
        <mxCell id="r4zGwkzem3nTi81o2-w--5" value="i == 1" style="rhombus;whiteSpace=wrap;html=1;" vertex="1" parent="1">
          <mxGeometry x="605" y="750" width="210" height="80" as="geometry" />
        </mxCell>
        <mxCell id="r4zGwkzem3nTi81o2-w--6" value="" style="endArrow=classic;html=1;rounded=0;exitX=0.5;exitY=1;exitDx=0;exitDy=0;" edge="1" parent="1" source="r4zGwkzem3nTi81o2-w--1">
          <mxGeometry width="50" height="50" relative="1" as="geometry">
            <mxPoint x="530" y="650" as="sourcePoint" />
            <mxPoint x="715" y="660" as="targetPoint" />
          </mxGeometry>
        </mxCell>
        <mxCell id="r4zGwkzem3nTi81o2-w--8" value="Đúng" style="edgeLabel;html=1;align=center;verticalAlign=middle;resizable=0;points=[];" vertex="1" connectable="0" parent="r4zGwkzem3nTi81o2-w--6">
          <mxGeometry x="-0.42" y="-2" relative="1" as="geometry">
            <mxPoint as="offset" />
          </mxGeometry>
        </mxCell>
        <mxCell id="r4zGwkzem3nTi81o2-w--9" value="cong == true" style="rhombus;whiteSpace=wrap;html=1;" vertex="1" parent="1">
          <mxGeometry x="577.5" y="900" width="120" height="80" as="geometry" />
        </mxCell>
        <mxCell id="r4zGwkzem3nTi81o2-w--10" value="tru == true" style="rhombus;whiteSpace=wrap;html=1;" vertex="1" parent="1">
          <mxGeometry x="727.5" y="900" width="120" height="80" as="geometry" />
        </mxCell>
        <mxCell id="r4zGwkzem3nTi81o2-w--11" value="" style="endArrow=classic;html=1;rounded=0;entryX=0.5;entryY=0;entryDx=0;entryDy=0;" edge="1" parent="1" target="r4zGwkzem3nTi81o2-w--9">
          <mxGeometry width="50" height="50" relative="1" as="geometry">
            <mxPoint x="687.5" y="870" as="sourcePoint" />
            <mxPoint x="657.5" y="850" as="targetPoint" />
            <Array as="points">
              <mxPoint x="637.5" y="870" />
            </Array>
          </mxGeometry>
        </mxCell>
        <mxCell id="r4zGwkzem3nTi81o2-w--13" value="" style="endArrow=none;html=1;rounded=0;entryX=0.5;entryY=1;entryDx=0;entryDy=0;" edge="1" parent="1" target="r4zGwkzem3nTi81o2-w--5">
          <mxGeometry width="50" height="50" relative="1" as="geometry">
            <mxPoint x="710" y="870" as="sourcePoint" />
            <mxPoint x="730" y="840" as="targetPoint" />
          </mxGeometry>
        </mxCell>
        <mxCell id="r4zGwkzem3nTi81o2-w--38" value="Đúng" style="edgeLabel;html=1;align=center;verticalAlign=middle;resizable=0;points=[];" vertex="1" connectable="0" parent="r4zGwkzem3nTi81o2-w--13">
          <mxGeometry x="0.0647" y="4" relative="1" as="geometry">
            <mxPoint as="offset" />
          </mxGeometry>
        </mxCell>
        <mxCell id="r4zGwkzem3nTi81o2-w--14" value="" style="endArrow=classic;html=1;rounded=0;entryX=0.49;entryY=0.018;entryDx=0;entryDy=0;entryPerimeter=0;" edge="1" parent="1" target="r4zGwkzem3nTi81o2-w--10">
          <mxGeometry width="50" height="50" relative="1" as="geometry">
            <mxPoint x="677.5" y="870" as="sourcePoint" />
            <mxPoint x="677.5" y="850" as="targetPoint" />
            <Array as="points">
              <mxPoint x="787.5" y="870" />
            </Array>
          </mxGeometry>
        </mxCell>
        <mxCell id="r4zGwkzem3nTi81o2-w--15" value="Thoi gian các đèn tăng" style="rounded=1;whiteSpace=wrap;html=1;" vertex="1" parent="1">
          <mxGeometry x="567.5" y="1030" width="130" height="60" as="geometry" />
        </mxCell>
        <mxCell id="r4zGwkzem3nTi81o2-w--16" value="Thoi gian các đèn giảm" style="rounded=1;whiteSpace=wrap;html=1;" vertex="1" parent="1">
          <mxGeometry x="722.5" y="1030" width="130" height="60" as="geometry" />
        </mxCell>
        <mxCell id="r4zGwkzem3nTi81o2-w--17" value="" style="endArrow=classic;html=1;rounded=0;entryX=0.537;entryY=0.033;entryDx=0;entryDy=0;entryPerimeter=0;exitX=0.5;exitY=1;exitDx=0;exitDy=0;" edge="1" parent="1" source="r4zGwkzem3nTi81o2-w--9" target="r4zGwkzem3nTi81o2-w--15">
          <mxGeometry width="50" height="50" relative="1" as="geometry">
            <mxPoint x="637.5" y="990" as="sourcePoint" />
            <mxPoint x="607.5" y="970" as="targetPoint" />
          </mxGeometry>
        </mxCell>
        <mxCell id="r4zGwkzem3nTi81o2-w--39" value="Đúng" style="edgeLabel;html=1;align=center;verticalAlign=middle;resizable=0;points=[];" vertex="1" connectable="0" parent="r4zGwkzem3nTi81o2-w--17">
          <mxGeometry x="0.0141" y="-1" relative="1" as="geometry">
            <mxPoint as="offset" />
          </mxGeometry>
        </mxCell>
        <mxCell id="r4zGwkzem3nTi81o2-w--18" value="" style="endArrow=classic;html=1;rounded=0;exitX=0.5;exitY=1;exitDx=0;exitDy=0;" edge="1" parent="1" source="r4zGwkzem3nTi81o2-w--10" target="r4zGwkzem3nTi81o2-w--16">
          <mxGeometry width="50" height="50" relative="1" as="geometry">
            <mxPoint x="557.5" y="1020" as="sourcePoint" />
            <mxPoint x="607.5" y="970" as="targetPoint" />
          </mxGeometry>
        </mxCell>
        <mxCell id="r4zGwkzem3nTi81o2-w--40" value="Đúng" style="edgeLabel;html=1;align=center;verticalAlign=middle;resizable=0;points=[];" vertex="1" connectable="0" parent="r4zGwkzem3nTi81o2-w--18">
          <mxGeometry x="0.0071" y="-1" relative="1" as="geometry">
            <mxPoint as="offset" />
          </mxGeometry>
        </mxCell>
        <mxCell id="r4zGwkzem3nTi81o2-w--21" value="tru == true" style="rhombus;whiteSpace=wrap;html=1;" vertex="1" parent="1">
          <mxGeometry x="925" y="750" width="120" height="80" as="geometry" />
        </mxCell>
        <mxCell id="r4zGwkzem3nTi81o2-w--23" value="j != j" style="rounded=1;whiteSpace=wrap;html=1;" vertex="1" parent="1">
          <mxGeometry x="925" y="905" width="120" height="60" as="geometry" />
        </mxCell>
        <mxCell id="r4zGwkzem3nTi81o2-w--24" value="j == 1" style="rhombus;whiteSpace=wrap;html=1;" vertex="1" parent="1">
          <mxGeometry x="940" y="1015" width="90" height="80" as="geometry" />
        </mxCell>
        <mxCell id="r4zGwkzem3nTi81o2-w--25" value="" style="endArrow=classic;html=1;rounded=0;exitX=0.5;exitY=1;exitDx=0;exitDy=0;entryX=0.5;entryY=0;entryDx=0;entryDy=0;" edge="1" parent="1" source="r4zGwkzem3nTi81o2-w--23" target="r4zGwkzem3nTi81o2-w--24">
          <mxGeometry width="50" height="50" relative="1" as="geometry">
            <mxPoint x="885" y="980" as="sourcePoint" />
            <mxPoint x="935" y="930" as="targetPoint" />
          </mxGeometry>
        </mxCell>
        <mxCell id="r4zGwkzem3nTi81o2-w--26" value="Đèn vàng nháy&lt;br&gt;" style="rounded=1;whiteSpace=wrap;html=1;" vertex="1" parent="1">
          <mxGeometry x="920" y="1175" width="130" height="60" as="geometry" />
        </mxCell>
        <mxCell id="r4zGwkzem3nTi81o2-w--29" value="" style="endArrow=classic;html=1;rounded=0;exitX=0.5;exitY=1;exitDx=0;exitDy=0;entryX=0.5;entryY=0;entryDx=0;entryDy=0;" edge="1" parent="1" source="r4zGwkzem3nTi81o2-w--24" target="r4zGwkzem3nTi81o2-w--26">
          <mxGeometry width="50" height="50" relative="1" as="geometry">
            <mxPoint x="900" y="975" as="sourcePoint" />
            <mxPoint x="950" y="925" as="targetPoint" />
          </mxGeometry>
        </mxCell>
        <mxCell id="r4zGwkzem3nTi81o2-w--31" value="Đúng" style="edgeLabel;html=1;align=center;verticalAlign=middle;resizable=0;points=[];" vertex="1" connectable="0" parent="r4zGwkzem3nTi81o2-w--29">
          <mxGeometry x="-0.23" relative="1" as="geometry">
            <mxPoint as="offset" />
          </mxGeometry>
        </mxCell>
        <mxCell id="r4zGwkzem3nTi81o2-w--30" value="" style="endArrow=classic;html=1;rounded=0;exitX=0.5;exitY=1;exitDx=0;exitDy=0;entryX=0.5;entryY=0;entryDx=0;entryDy=0;" edge="1" parent="1" source="r4zGwkzem3nTi81o2-w--21" target="r4zGwkzem3nTi81o2-w--23">
          <mxGeometry width="50" height="50" relative="1" as="geometry">
            <mxPoint x="900" y="975" as="sourcePoint" />
            <mxPoint x="950" y="925" as="targetPoint" />
          </mxGeometry>
        </mxCell>
        <mxCell id="r4zGwkzem3nTi81o2-w--32" value="Đúng" style="edgeLabel;html=1;align=center;verticalAlign=middle;resizable=0;points=[];" vertex="1" connectable="0" parent="r4zGwkzem3nTi81o2-w--30">
          <mxGeometry x="-0.3071" y="-1" relative="1" as="geometry">
            <mxPoint as="offset" />
          </mxGeometry>
        </mxCell>
        <mxCell id="r4zGwkzem3nTi81o2-w--36" value="i != i" style="rounded=1;whiteSpace=wrap;html=1;" vertex="1" parent="1">
          <mxGeometry x="650" y="650" width="120" height="60" as="geometry" />
        </mxCell>
        <mxCell id="r4zGwkzem3nTi81o2-w--37" value="" style="endArrow=classic;html=1;rounded=0;exitX=0.5;exitY=1;exitDx=0;exitDy=0;entryX=0.5;entryY=0;entryDx=0;entryDy=0;" edge="1" parent="1" source="r4zGwkzem3nTi81o2-w--36" target="r4zGwkzem3nTi81o2-w--5">
          <mxGeometry width="50" height="50" relative="1" as="geometry">
            <mxPoint x="970" y="830" as="sourcePoint" />
            <mxPoint x="1020" y="780" as="targetPoint" />
          </mxGeometry>
        </mxCell>
        <mxCell id="r4zGwkzem3nTi81o2-w--41" value="Sai" style="endArrow=classic;html=1;rounded=0;exitX=1;exitY=0.5;exitDx=0;exitDy=0;entryX=0;entryY=0.5;entryDx=0;entryDy=0;" edge="1" parent="1" source="r4zGwkzem3nTi81o2-w--5" target="r4zGwkzem3nTi81o2-w--21">
          <mxGeometry width="50" height="50" relative="1" as="geometry">
            <mxPoint x="800" y="900" as="sourcePoint" />
            <mxPoint x="850" y="850" as="targetPoint" />
          </mxGeometry>
        </mxCell>
      </root>
    </mxGraphModel>
  </diagram>
</mxfile>
